<svg width="210" height="49" viewBox="0 0 210 49" fill="none" xmlns="http://www.w3.org/2000/svg">
<path d="M52.8693 10.9091H59.3182L67.9545 31.9886H68.2955L76.9318 10.9091H83.3807V40H78.3239V20.0142H78.054L70.0142 39.9148H66.2358L58.196 19.9716H57.9261V40H52.8693V10.9091ZM95.1705 40.4403C93.7879 40.4403 92.5426 40.1941 91.4347 39.7017C90.3362 39.1998 89.465 38.4612 88.821 37.4858C88.1866 36.5104 87.8693 35.3078 87.8693 33.8778C87.8693 32.6468 88.0966 31.6288 88.5511 30.8239C89.0057 30.0189 89.6259 29.375 90.4119 28.892C91.1979 28.4091 92.0833 28.0445 93.0682 27.7983C94.0625 27.5426 95.09 27.358 96.1506 27.2443C97.429 27.1117 98.4659 26.9934 99.2614 26.8892C100.057 26.7756 100.634 26.6051 100.994 26.3778C101.364 26.1411 101.548 25.7765 101.548 25.2841V25.1989C101.548 24.1288 101.231 23.3002 100.597 22.7131C99.9621 22.1259 99.0483 21.8324 97.8551 21.8324C96.5956 21.8324 95.5966 22.107 94.858 22.6562C94.1288 23.2055 93.6364 23.8542 93.3807 24.6023L88.5795 23.9205C88.9583 22.5947 89.5833 21.4867 90.4545 20.5966C91.3258 19.697 92.3911 19.0246 93.6506 18.5795C94.91 18.125 96.3021 17.8977 97.8267 17.8977C98.8778 17.8977 99.9242 18.0208 100.966 18.267C102.008 18.5133 102.959 18.9205 103.821 19.4886C104.683 20.0473 105.374 20.8097 105.895 21.7756C106.425 22.7415 106.69 23.9489 106.69 25.3977V40H101.747V37.0028H101.577C101.264 37.6089 100.824 38.1771 100.256 38.7074C99.697 39.2282 98.9915 39.6496 98.1392 39.9716C97.2964 40.2841 96.3068 40.4403 95.1705 40.4403ZM96.5057 36.6619C97.5379 36.6619 98.4328 36.4583 99.1903 36.0511C99.9479 35.6345 100.53 35.0852 100.938 34.4034C101.354 33.7216 101.562 32.9782 101.562 32.1733V29.6023C101.402 29.7348 101.127 29.858 100.739 29.9716C100.36 30.0852 99.9337 30.1847 99.4602 30.2699C98.9867 30.3551 98.518 30.4309 98.054 30.4972C97.59 30.5634 97.1875 30.6203 96.8466 30.6676C96.0795 30.7718 95.393 30.9422 94.7869 31.179C94.1809 31.4157 93.7027 31.7472 93.3523 32.1733C93.0019 32.59 92.8267 33.1297 92.8267 33.7926C92.8267 34.7396 93.1723 35.4545 93.8636 35.9375C94.5549 36.4205 95.4356 36.6619 96.5057 36.6619ZM129.105 23.9489L124.418 24.4602C124.285 23.9867 124.053 23.5417 123.722 23.125C123.4 22.7083 122.964 22.3722 122.415 22.1165C121.866 21.8608 121.193 21.733 120.398 21.733C119.328 21.733 118.428 21.965 117.699 22.429C116.979 22.893 116.624 23.4943 116.634 24.233C116.624 24.8674 116.856 25.3835 117.33 25.7812C117.813 26.179 118.608 26.5057 119.716 26.7614L123.438 27.5568C125.502 28.0019 127.036 28.7074 128.04 29.6733C129.053 30.6392 129.564 31.9034 129.574 33.4659C129.564 34.839 129.162 36.0511 128.366 37.1023C127.58 38.1439 126.487 38.9583 125.085 39.5455C123.684 40.1326 122.074 40.4261 120.256 40.4261C117.585 40.4261 115.436 39.8674 113.807 38.75C112.178 37.6231 111.207 36.0559 110.895 34.0483L115.909 33.5653C116.136 34.5502 116.619 35.2936 117.358 35.7955C118.097 36.2973 119.058 36.5483 120.241 36.5483C121.463 36.5483 122.443 36.2973 123.182 35.7955C123.93 35.2936 124.304 34.6733 124.304 33.9347C124.304 33.3097 124.063 32.7936 123.58 32.3864C123.106 31.9792 122.367 31.6667 121.364 31.4489L117.642 30.6676C115.549 30.232 114.001 29.4981 112.997 28.4659C111.993 27.4242 111.496 26.108 111.506 24.517C111.496 23.1723 111.861 22.0076 112.599 21.0227C113.348 20.0284 114.384 19.2614 115.71 18.7216C117.045 18.1723 118.584 17.8977 120.327 17.8977C122.884 17.8977 124.896 18.4422 126.364 19.5312C127.841 20.6203 128.755 22.0928 129.105 23.9489ZM144.709 18.1818V22.1591H132.166V18.1818H144.709ZM135.263 12.9545H140.405V33.4375C140.405 34.1288 140.509 34.6591 140.717 35.0284C140.935 35.3883 141.219 35.6345 141.57 35.767C141.92 35.8996 142.308 35.9659 142.734 35.9659C143.056 35.9659 143.35 35.9422 143.615 35.8949C143.89 35.8475 144.098 35.8049 144.24 35.767L145.107 39.7869C144.832 39.8816 144.439 39.9858 143.928 40.0994C143.426 40.2131 142.81 40.2794 142.081 40.2983C140.793 40.3362 139.633 40.142 138.601 39.7159C137.569 39.2803 136.75 38.608 136.143 37.6989C135.547 36.7898 135.253 35.6534 135.263 34.2898V12.9545ZM158.434 40.4261C156.246 40.4261 154.357 39.9716 152.766 39.0625C151.185 38.1439 149.968 36.8466 149.116 35.1705C148.263 33.4848 147.837 31.5009 147.837 29.2188C147.837 26.9744 148.263 25.0047 149.116 23.3097C149.978 21.6051 151.18 20.2794 152.724 19.3324C154.267 18.3759 156.081 17.8977 158.164 17.8977C159.509 17.8977 160.778 18.1155 161.971 18.5511C163.174 18.9773 164.234 19.6402 165.153 20.5398C166.081 21.4394 166.81 22.5852 167.34 23.9773C167.871 25.3598 168.136 27.0076 168.136 28.9205V30.4972H150.252V27.0312H163.207C163.197 26.0464 162.984 25.1705 162.567 24.4034C162.151 23.6269 161.568 23.0161 160.82 22.571C160.082 22.1259 159.22 21.9034 158.235 21.9034C157.184 21.9034 156.261 22.1591 155.465 22.6705C154.67 23.1723 154.049 23.8352 153.604 24.6591C153.169 25.4735 152.946 26.3684 152.937 27.3438V30.3693C152.937 31.6383 153.169 32.7273 153.633 33.6364C154.097 34.536 154.746 35.2273 155.579 35.7102C156.412 36.1837 157.388 36.4205 158.505 36.4205C159.253 36.4205 159.93 36.3163 160.536 36.108C161.142 35.8902 161.668 35.5729 162.113 35.1562C162.558 34.7396 162.894 34.2235 163.121 33.608L167.923 34.1477C167.62 35.4167 167.042 36.5246 166.19 37.4716C165.347 38.4091 164.267 39.1383 162.951 39.6591C161.635 40.1705 160.129 40.4261 158.434 40.4261ZM172.486 40V18.1818H177.472V21.8182H177.699C178.097 20.5587 178.778 19.5881 179.744 18.9062C180.72 18.215 181.832 17.8693 183.082 17.8693C183.366 17.8693 183.684 17.8835 184.034 17.9119C184.394 17.9309 184.692 17.964 184.929 18.0114V22.7415C184.711 22.6657 184.366 22.5994 183.892 22.5426C183.428 22.4763 182.978 22.4432 182.543 22.4432C181.605 22.4432 180.762 22.6468 180.014 23.054C179.276 23.4517 178.693 24.0057 178.267 24.7159C177.841 25.4261 177.628 26.2453 177.628 27.1733V40H172.486ZM192.205 48.1818C191.504 48.1818 190.856 48.125 190.259 48.0114C189.672 47.9072 189.203 47.7841 188.853 47.642L190.046 43.6364C190.794 43.8542 191.462 43.9583 192.049 43.9489C192.636 43.9394 193.152 43.7547 193.597 43.3949C194.052 43.0445 194.435 42.4574 194.748 41.6335L195.188 40.4545L187.276 18.1818H192.731L197.759 34.6591H197.987L203.029 18.1818H208.498L199.762 42.642C199.355 43.7973 198.815 44.7869 198.143 45.6108C197.47 46.4441 196.647 47.0786 195.671 47.5142C194.705 47.9593 193.55 48.1818 192.205 48.1818Z" fill="#A8ABD6"/>
<g clip-path="url(#clip0_21_9)">
<path d="M48 0.500488H0V48.5005H48V0.500488Z" fill="#D9F0B9"/>
<path d="M24.4982 11.759L28.2883 15.6405L33.7129 15.5759L33.6482 21.0004L37.5297 24.7905L33.6482 28.5805L33.7129 34.0051L28.2883 33.9405L24.4982 37.8219L20.7082 33.9405L15.2836 34.0051L15.3482 28.5805L11.4668 24.7905L15.3482 21.0004L15.2836 15.5759L20.7082 15.6405L24.4982 11.759Z" fill="#699519"/>
</g>
<defs>
<clipPath id="clip0_21_9">
<rect width="48" height="49" fill="white"/>
</clipPath>
</defs>
</svg>
