<svg width="174" height="40" viewBox="0 0 174 40" fill="none" xmlns="http://www.w3.org/2000/svg">
<path d="M14.5483 21.8239V9.18182H19.6903V31H14.7045V27.1222H14.4773C13.9848 28.3437 13.1752 29.3428 12.0483 30.1193C10.9309 30.8958 9.55303 31.2841 7.91477 31.2841C6.48485 31.2841 5.22064 30.9669 4.12216 30.3324C3.03314 29.6884 2.18087 28.7557 1.56534 27.5341C0.949811 26.303 0.642046 24.8163 0.642046 23.0739V9.18182H5.78409V22.2784C5.78409 23.661 6.16288 24.7595 6.92045 25.5739C7.67803 26.3883 8.67235 26.7955 9.90341 26.7955C10.661 26.7955 11.3949 26.6108 12.1051 26.2415C12.8153 25.8722 13.3977 25.3229 13.8523 24.5938C14.3163 23.8551 14.5483 22.9318 14.5483 21.8239ZM24.978 39.1818V9.18182H30.0348V12.7898H30.3331C30.5982 12.2595 30.9723 11.696 31.4553 11.0994C31.9382 10.4934 32.5916 9.97727 33.4155 9.55114C34.2393 9.11553 35.2905 8.89773 36.5689 8.89773C38.2545 8.89773 39.7744 9.3286 41.1286 10.1903C42.4922 11.0426 43.5717 12.3068 44.3672 13.983C45.1721 15.6496 45.5746 17.6951 45.5746 20.1193C45.5746 22.5152 45.1816 24.5511 44.3956 26.2273C43.6096 27.9034 42.5395 29.1818 41.1854 30.0625C39.8312 30.9432 38.2971 31.3835 36.5831 31.3835C35.3331 31.3835 34.2962 31.1752 33.4723 30.7585C32.6484 30.3419 31.9856 29.84 31.4837 29.2528C30.9912 28.6562 30.6077 28.0928 30.3331 27.5625H30.12V39.1818H24.978ZM30.0206 20.0909C30.0206 21.5019 30.2195 22.7377 30.6172 23.7983C31.0244 24.8589 31.6068 25.6875 32.3643 26.2841C33.1314 26.8712 34.0594 27.1648 35.1484 27.1648C36.2848 27.1648 37.2365 26.8617 38.0036 26.2557C38.7706 25.6402 39.3482 24.8021 39.7365 23.7415C40.1342 22.6714 40.3331 21.4545 40.3331 20.0909C40.3331 18.7367 40.139 17.5341 39.7507 16.483C39.3625 15.4318 38.7848 14.608 38.0178 14.0114C37.2507 13.4148 36.2943 13.1165 35.1484 13.1165C34.05 13.1165 33.1172 13.4053 32.3501 13.983C31.5831 14.5606 31.0007 15.3703 30.603 16.4119C30.2147 17.4536 30.0206 18.6799 30.0206 20.0909ZM55.12 1.90909V31H49.978V1.90909H55.12ZM69.9247 31.4261C67.794 31.4261 65.9474 30.9574 64.3849 30.0199C62.8224 29.0824 61.6103 27.7708 60.7486 26.0852C59.8963 24.3996 59.4702 22.4299 59.4702 20.1761C59.4702 17.9223 59.8963 15.9479 60.7486 14.2528C61.6103 12.5578 62.8224 11.2415 64.3849 10.304C65.9474 9.36648 67.794 8.89773 69.9247 8.89773C72.0554 8.89773 73.902 9.36648 75.4645 10.304C77.027 11.2415 78.2344 12.5578 79.0866 14.2528C79.9484 15.9479 80.3793 17.9223 80.3793 20.1761C80.3793 22.4299 79.9484 24.3996 79.0866 26.0852C78.2344 27.7708 77.027 29.0824 75.4645 30.0199C73.902 30.9574 72.0554 31.4261 69.9247 31.4261ZM69.9531 27.3068C71.1084 27.3068 72.0743 26.9896 72.8509 26.3551C73.6274 25.7112 74.205 24.8494 74.5838 23.7699C74.9721 22.6903 75.1662 21.4877 75.1662 20.1619C75.1662 18.8267 74.9721 17.6193 74.5838 16.5398C74.205 15.4508 73.6274 14.5843 72.8509 13.9403C72.0743 13.2964 71.1084 12.9744 69.9531 12.9744C68.7694 12.9744 67.7846 13.2964 66.9986 13.9403C66.2221 14.5843 65.6397 15.4508 65.2514 16.5398C64.8726 17.6193 64.6832 18.8267 64.6832 20.1619C64.6832 21.4877 64.8726 22.6903 65.2514 23.7699C65.6397 24.8494 66.2221 25.7112 66.9986 26.3551C67.7846 26.9896 68.7694 27.3068 69.9531 27.3068ZM91.022 31.4403C89.6394 31.4403 88.3942 31.1941 87.2862 30.7017C86.1877 30.1998 85.3165 29.4612 84.6726 28.4858C84.0381 27.5104 83.7209 26.3078 83.7209 24.8778C83.7209 23.6468 83.9482 22.6288 84.4027 21.8239C84.8572 21.0189 85.4775 20.375 86.2635 19.892C87.0495 19.4091 87.9349 19.0445 88.9197 18.7983C89.9141 18.5426 90.9415 18.358 92.0021 18.2443C93.2805 18.1117 94.3175 17.9934 95.1129 17.8892C95.9084 17.7756 96.486 17.6051 96.8459 17.3778C97.2152 17.1411 97.3999 16.7765 97.3999 16.2841V16.1989C97.3999 15.1288 97.0826 14.3002 96.4482 13.7131C95.8137 13.1259 94.8999 12.8324 93.7067 12.8324C92.4472 12.8324 91.4482 13.107 90.7095 13.6562C89.9804 14.2055 89.4879 14.8542 89.2322 15.6023L84.4311 14.9205C84.8099 13.5947 85.4349 12.4867 86.3061 11.5966C87.1773 10.697 88.2427 10.0246 89.5021 9.57955C90.7616 9.125 92.1536 8.89773 93.6783 8.89773C94.7294 8.89773 95.7758 9.02083 96.8175 9.26705C97.8591 9.51326 98.8108 9.92045 99.6726 10.4886C100.534 11.0473 101.226 11.8097 101.746 12.7756C102.277 13.7415 102.542 14.9489 102.542 16.3977V31H97.5987V28.0028H97.4283C97.1158 28.6089 96.6754 29.1771 96.1072 29.7074C95.5485 30.2282 94.843 30.6496 93.9908 30.9716C93.148 31.2841 92.1584 31.4403 91.022 31.4403ZM92.3572 27.6619C93.3894 27.6619 94.2843 27.4583 95.0419 27.0511C95.7995 26.6345 96.3819 26.0852 96.7891 25.4034C97.2057 24.7216 97.4141 23.9782 97.4141 23.1733V20.6023C97.2531 20.7348 96.9785 20.858 96.5902 20.9716C96.2114 21.0852 95.7853 21.1847 95.3118 21.2699C94.8383 21.3551 94.3696 21.4309 93.9055 21.4972C93.4415 21.5634 93.0391 21.6203 92.6982 21.6676C91.9311 21.7718 91.2446 21.9422 90.6385 22.179C90.0324 22.4157 89.5542 22.7472 89.2038 23.1733C88.8535 23.59 88.6783 24.1297 88.6783 24.7926C88.6783 25.7396 89.0239 26.4545 89.7152 26.9375C90.4065 27.4205 91.2872 27.6619 92.3572 27.6619ZM115.809 31.3835C114.095 31.3835 112.561 30.9432 111.207 30.0625C109.853 29.1818 108.782 27.9034 107.996 26.2273C107.21 24.5511 106.817 22.5152 106.817 20.1193C106.817 17.6951 107.215 15.6496 108.011 13.983C108.816 12.3068 109.9 11.0426 111.263 10.1903C112.627 9.3286 114.147 8.89773 115.823 8.89773C117.102 8.89773 118.153 9.11553 118.977 9.55114C119.8 9.97727 120.454 10.4934 120.937 11.0994C121.42 11.696 121.794 12.2595 122.059 12.7898H122.272V1.90909H127.428V31H122.371V27.5625H122.059C121.794 28.0928 121.41 28.6562 120.908 29.2528C120.406 29.84 119.744 30.3419 118.92 30.7585C118.096 31.1752 117.059 31.3835 115.809 31.3835ZM117.244 27.1648C118.333 27.1648 119.261 26.8712 120.028 26.2841C120.795 25.6875 121.377 24.8589 121.775 23.7983C122.173 22.7377 122.371 21.5019 122.371 20.0909C122.371 18.6799 122.173 17.4536 121.775 16.4119C121.387 15.3703 120.809 14.5606 120.042 13.983C119.284 13.4053 118.352 13.1165 117.244 13.1165C116.098 13.1165 115.141 13.4148 114.374 14.0114C113.607 14.608 113.03 15.4318 112.641 16.483C112.253 17.5341 112.059 18.7367 112.059 20.0909C112.059 21.4545 112.253 22.6714 112.641 23.7415C113.039 24.8021 113.621 25.6402 114.388 26.2557C115.165 26.8617 116.117 27.1648 117.244 27.1648ZM136.075 31.3125C135.214 31.3125 134.475 31.0095 133.859 30.4034C133.244 29.7973 132.941 29.0587 132.95 28.1875C132.941 27.3352 133.244 26.6061 133.859 26C134.475 25.3939 135.214 25.0909 136.075 25.0909C136.909 25.0909 137.633 25.3939 138.249 26C138.874 26.6061 139.191 27.3352 139.2 28.1875C139.191 28.7652 139.039 29.2907 138.746 29.7642C138.462 30.2377 138.083 30.6165 137.609 30.9006C137.145 31.1752 136.634 31.3125 136.075 31.3125ZM150.788 31.4403C149.405 31.4403 148.16 31.1941 147.052 30.7017C145.953 30.1998 145.082 29.4612 144.438 28.4858C143.804 27.5104 143.487 26.3078 143.487 24.8778C143.487 23.6468 143.714 22.6288 144.168 21.8239C144.623 21.0189 145.243 20.375 146.029 19.892C146.815 19.4091 147.701 19.0445 148.685 18.7983C149.68 18.5426 150.707 18.358 151.768 18.2443C153.046 18.1117 154.083 17.9934 154.879 17.8892C155.674 17.7756 156.252 17.6051 156.612 17.3778C156.981 17.1411 157.165 16.7765 157.165 16.2841V16.1989C157.165 15.1288 156.848 14.3002 156.214 13.7131C155.579 13.1259 154.665 12.8324 153.472 12.8324C152.213 12.8324 151.214 13.107 150.475 13.6562C149.746 14.2055 149.254 14.8542 148.998 15.6023L144.197 14.9205C144.576 13.5947 145.201 12.4867 146.072 11.5966C146.943 10.697 148.008 10.0246 149.268 9.57955C150.527 9.125 151.919 8.89773 153.444 8.89773C154.495 8.89773 155.541 9.02083 156.583 9.26705C157.625 9.51326 158.576 9.92045 159.438 10.4886C160.3 11.0473 160.991 11.8097 161.512 12.7756C162.042 13.7415 162.308 14.9489 162.308 16.3977V31H157.364V28.0028H157.194C156.881 28.6089 156.441 29.1771 155.873 29.7074C155.314 30.2282 154.609 30.6496 153.756 30.9716C152.914 31.2841 151.924 31.4403 150.788 31.4403ZM152.123 27.6619C153.155 27.6619 154.05 27.4583 154.808 27.0511C155.565 26.6345 156.147 26.0852 156.555 25.4034C156.971 24.7216 157.18 23.9782 157.18 23.1733V20.6023C157.019 20.7348 156.744 20.858 156.356 20.9716C155.977 21.0852 155.551 21.1847 155.077 21.2699C154.604 21.3551 154.135 21.4309 153.671 21.4972C153.207 21.5634 152.805 21.6203 152.464 21.6676C151.697 21.7718 151.01 21.9422 150.404 22.179C149.798 22.4157 149.32 22.7472 148.969 23.1733C148.619 23.59 148.444 24.1297 148.444 24.7926C148.444 25.7396 148.79 26.4545 149.481 26.9375C150.172 27.4205 151.053 27.6619 152.123 27.6619ZM167.478 31V9.18182H172.62V31H167.478ZM170.063 6.08523C169.249 6.08523 168.548 5.81534 167.961 5.27557C167.374 4.72632 167.08 4.06818 167.08 3.30114C167.08 2.52462 167.374 1.86648 167.961 1.3267C168.548 0.777461 169.249 0.50284 170.063 0.50284C170.887 0.50284 171.588 0.777461 172.165 1.3267C172.753 1.86648 173.046 2.52462 173.046 3.30114C173.046 4.06818 172.753 4.72632 172.165 5.27557C171.588 5.81534 170.887 6.08523 170.063 6.08523Z" fill="#A8ABD6"/>
</svg>
